<svg width="508" height="227" fill="none" xmlns="http://www.w3.org/2000/svg"><g filter="url(#a)"><rect x="13" y="13" width="199" height="199" rx="30" fill="#fff"/></g><path fill-rule="evenodd" clip-rule="evenodd" d="M399.295 144.299h16.352V79.447h-16.352v64.852Zm79.84-52.697a26.874 26.874 0 0 0-7.796-7.485c-4.936-3.113-11.671-4.666-20.199-4.666h-21.544v64.848h25.201c9.107 0 16.415-2.979 21.93-8.943 5.515-5.961 8.269-13.873 8.269-23.727 0-7.839-1.956-14.514-5.865-20.027h.004Zm-26.167 38.015h-7.019V94.129h7.118c5.001 0 8.845 1.567 11.54 4.692 2.696 3.124 4.044 7.558 4.044 13.296 0 11.667-5.228 17.5-15.683 17.5ZM93.892 25 40.899 38.89 26.295 92.226l18.265 18.769L26 129.453l13.745 53.568 52.763 14.755 18.564-18.462 18.265 18.765 52.993-13.891 14.6-53.339-18.261-18.761 18.56-18.459-13.745-53.572-52.77-14.754-18.557 18.458L93.892 25Zm-32.52 24.15 27.915-7.32 12.208 12.54-17.803 17.705-22.32-22.925Zm61.28 5.389 12.404-12.334 27.795 7.773-22.684 22.556-17.515-17.996ZM43.019 87.846l7.69-28.091L73.022 82.68l-17.799 17.704-12.204-12.542v.004Zm107.636-4.532 22.684-22.564 7.235 28.219-12.401 12.337-17.518-17.992Zm-56.472-.463 17.803-17.704 17.511 17.996-17.799 17.704-17.515-17.996Zm-28.465 28.31 17.8-17.704 17.521 17.996-17.806 17.704-17.515-17.996Zm56.475.463 17.799-17.704 17.515 17.996-17.802 17.704-17.512-17.996Zm-79.545 22.484 12.407-12.341 17.512 17.999L49.89 162.32l-7.242-28.211Zm51.076 5.826 17.803-17.704 17.515 17.996-17.799 17.704-17.519-17.996Zm56.472.467 17.803-17.705 12.207 12.538-7.687 28.092-22.323-22.925Zm-89.818 32.703 22.68-22.564 17.522 17.995-12.407 12.342-27.795-7.777v.004Zm61.356-4.397 17.799-17.704 22.316 22.928-27.911 7.317-12.204-12.541Z" fill="#111"/><g filter="url(#b)"><rect x="294" y="13" width="199" height="199" rx="30" fill="#fff"/></g><path fill-rule="evenodd" clip-rule="evenodd" d="M483.698 63.251c.065.237.097.482.098.728v38.191a2.779 2.779 0 0 1-1.399 2.415L450.35 123.04v36.58c0 .995-.529 1.914-1.392 2.415l-66.896 38.519c-.154.087-.321.142-.488.201-.062.021-.121.06-.188.077a2.802 2.802 0 0 1-1.426 0c-.077-.021-.146-.063-.22-.09-.153-.056-.313-.105-.459-.188l-66.882-38.519A2.79 2.79 0 0 1 311 159.62V45.047c0-.25.035-.494.097-.731.021-.08.07-.153.098-.233.052-.147.101-.296.177-.432.053-.09.129-.164.192-.247.08-.112.153-.226.247-.324.08-.08.184-.14.275-.209.101-.083.191-.174.306-.24h.003l33.443-19.259a2.794 2.794 0 0 1 2.784 0l33.443 19.26h.007c.111.069.205.156.306.236.091.07.192.132.272.209.097.1.167.215.25.327.059.083.139.156.188.247.08.14.125.285.181.432.028.08.077.153.098.236.064.237.096.482.097.728v71.561l27.868-16.05V63.975c0-.244.035-.49.097-.724.025-.083.07-.157.098-.236.055-.147.104-.296.181-.432.052-.09.128-.164.188-.247.083-.112.153-.227.25-.324.08-.08.181-.14.272-.209.104-.083.195-.174.306-.24h.003l33.447-19.26a2.785 2.785 0 0 1 2.784 0l33.442 19.26c.119.07.209.157.314.237.087.07.188.132.268.209.097.1.167.215.25.327.063.083.139.156.188.247.08.136.125.285.181.431.031.08.077.154.097.237Zm-5.477 37.307V68.799l-11.703 6.74-16.168 9.31v31.759l27.874-16.05h-.003Zm-33.443 57.45v-31.779l-15.903 9.085-45.414 25.924v32.079l61.317-35.309ZM316.575 49.868v108.14l61.311 35.306v-32.072l-32.03-18.132-.011-.007-.014-.006c-.108-.063-.198-.154-.299-.23-.087-.07-.188-.126-.264-.202l-.007-.011c-.091-.087-.154-.194-.23-.292-.07-.094-.153-.174-.209-.271l-.003-.011c-.063-.104-.101-.23-.147-.348-.045-.104-.104-.202-.132-.313v-.004c-.035-.132-.042-.271-.055-.407-.014-.104-.042-.209-.042-.313V65.917l-16.165-9.314-11.703-6.732v-.003Zm30.659-20.864-27.865 16.043 27.858 16.043 27.861-16.047-27.861-16.04h.007Zm14.49 100.121 16.165-9.308v-69.95l-11.703 6.74-16.168 9.31v69.95l11.706-6.742Zm85.842-81.19L419.705 63.98l27.861 16.043 27.857-16.047-27.857-16.04Zm-2.788 36.914-16.168-9.31-11.703-6.74v31.759l16.164 9.308 11.707 6.742V84.849Zm-64.108 71.568 40.865-23.335 20.428-11.66-27.84-16.033-32.054 18.459-29.215 16.822 27.816 15.747Z" fill="#FF2D20"/><g filter="url(#c)"><path d="M257.48 138.534V86.02h-9.887v52.514h9.887Zm7.691-29.37c8.935-.439 15.137-1.099 18.603-1.977 1.075 0 1.954.415 2.637 1.245.733.781 1.099 1.66 1.099 2.636 0 .977-.318 1.831-.952 2.564-.586.732-1.954 1.245-4.102 1.538-5.029.781-10.791 1.318-17.285 1.611v25.635a3.929 3.929 0 0 1-1.099 2.783c-.732.781-1.66 1.172-2.783 1.172h-17.578c-1.074 0-2.002-.391-2.783-1.172a3.929 3.929 0 0 1-1.099-2.783v-25.635c-6.787-.342-13.135-.976-19.043-1.904-2.197-.244-3.296-1.709-3.296-4.395.147-.878.586-1.635 1.319-2.27.732-.684 1.587-1.025 2.563-1.025 2.441.83 8.594 1.489 18.457 1.977v-26.88c0-1.025.366-1.928 1.099-2.71.781-.781 1.709-1.172 2.783-1.172h17.578c1.123 0 2.051.391 2.783 1.172.733.782 1.099 1.685 1.099 2.71v26.88Z" fill="red"/></g><defs><filter id="a" x="0" y="0" width="227" height="227" filterUnits="userSpaceOnUse" color-interpolation-filters="sRGB"><feFlood flood-opacity="0" result="BackgroundImageFix"/><feColorMatrix in="SourceAlpha" values="0 0 0 0 0 0 0 0 0 0 0 0 0 0 0 0 0 0 127 0" result="hardAlpha"/><feMorphology radius="2" operator="dilate" in="SourceAlpha" result="effect1_dropShadow_3_18"/><feOffset dx="1" dy="1"/><feGaussianBlur stdDeviation="6"/><feComposite in2="hardAlpha" operator="out"/><feColorMatrix values="0 0 0 0 0 0 0 0 0 0 0 0 0 0 0 0 0 0 0.25 0"/><feBlend in2="BackgroundImageFix" result="effect1_dropShadow_3_18"/><feBlend in="SourceGraphic" in2="effect1_dropShadow_3_18" result="shape"/></filter><filter id="b" x="281" y="0" width="227" height="227" filterUnits="userSpaceOnUse" color-interpolation-filters="sRGB"><feFlood flood-opacity="0" result="BackgroundImageFix"/><feColorMatrix in="SourceAlpha" values="0 0 0 0 0 0 0 0 0 0 0 0 0 0 0 0 0 0 127 0" result="hardAlpha"/><feMorphology radius="2" operator="dilate" in="SourceAlpha" result="effect1_dropShadow_3_18"/><feOffset dx="1" dy="1"/><feGaussianBlur stdDeviation="6"/><feComposite in2="hardAlpha" operator="out"/><feColorMatrix values="0 0 0 0 0 0 0 0 0 0 0 0 0 0 0 0 0 0 0.25 0"/><feBlend in2="BackgroundImageFix" result="effect1_dropShadow_3_18"/><feBlend in="SourceGraphic" in2="effect1_dropShadow_3_18" result="shape"/></filter><filter id="c" x="206.49" y="67.402" width="94.019" height="91.969" filterUnits="userSpaceOnUse" color-interpolation-filters="sRGB"><feFlood flood-opacity="0" result="BackgroundImageFix"/><feColorMatrix in="SourceAlpha" values="0 0 0 0 0 0 0 0 0 0 0 0 0 0 0 0 0 0 127 0" result="hardAlpha"/><feOffset dx="1" dy="1"/><feGaussianBlur stdDeviation="6"/><feComposite in2="hardAlpha" operator="out"/><feColorMatrix values="0 0 0 0 0 0 0 0 0 0 0 0 0 0 0 0 0 0 0.25 0"/><feBlend in2="BackgroundImageFix" result="effect1_dropShadow_3_18"/><feBlend in="SourceGraphic" in2="effect1_dropShadow_3_18" result="shape"/></filter></defs></svg>