<svg xmlns="http://www.w3.org/2000/svg" viewBox="40 119 220 62" class="iconLeftSlogan">
    <path d="M114.657 152.993v-25.072h12.197q3.76 0 5.772 2.09 2.01 2.062 2.01 5.536 0 3.552-2.089 5.694-2.115 2.141-5.693 2.141h-8.723v9.611h-3.474Zm3.474-12.64h8.54q2.063 0 3.265-1.28 1.201-1.28 1.201-3.474 0-2.246-1.123-3.447-1.15-1.202-3.343-1.202h-8.54v9.403Zm20.476 12.64v-26.43h3.212v26.43h-3.212Zm13.346.444q-2.508 0-4.44-1.175-1.933-1.175-1.933-4.23 0-3.71 3.29-5.068 3.292-1.384 9.508-1.384v-2.115q0-1.672-.94-2.56-.967-.914-3.448-.914-2.35 0-3.343.888-1.019.862-1.019 2.142v.444h-3.108q-.026-.21-.026-.81 0-2.56 2.116-3.944 2.115-1.384 5.667-1.384 3.578 0 5.459 1.489 1.854 1.515 1.854 4.257v10.42q0 .654.366.967.365.313.914.313h1.462v2.09q-.94.418-2.48.418-1.255 0-2.09-.732-.836-.757-1.123-2.01h-.261q-.993 1.357-2.69 2.141-1.698.757-3.735.757Zm.835-2.664q1.41 0 2.69-.6 1.28-.575 2.09-1.724.81-1.15.81-2.795v-1.384q-4.728 0-7.078.731-2.35.758-2.35 2.847 0 1.567.965 2.246.967.68 2.873.68Zm14.26-20.632v-3.578h3.213v3.578h-3.213Zm0 22.852v-19.222h3.213v19.222h-3.213Zm14.548.444q-3.657 0-5.642-2.455-1.958-2.455-1.958-7.6 0-5.04 1.958-7.548 1.96-2.507 5.355-2.507 2.037 0 3.473.627 1.41.627 2.377 2.01h.209v-9.401h3.212v26.43h-2.403l-.391-2.585h-.235q-.94 1.488-2.508 2.272-1.54.757-3.447.757Zm.81-2.664q2.585 0 3.786-1.828 1.176-1.828 1.176-5.406v-.157q0-3.656-1.202-5.51-1.201-1.881-3.76-1.881-1.829 0-2.952.705-1.123.731-1.62 2.325-.521 1.619-.521 4.361v.157q0 2.69.522 4.257.496 1.593 1.593 2.272 1.097.705 2.977.705Zm29.825 2.664q-2.664 0-4.44-.783-1.775-.784-2.611-2.063-.836-1.28-.836-2.795 0-.418.026-.6v-.183h3.186v.365q0 1.698 1.359 2.56 1.358.862 3.5.862 1.88 0 3.107-.758 1.202-.731 1.202-2.09 0-1.07-.68-1.723-.705-.68-1.723-1.07-1.019-.393-2.769-.837-2.141-.548-3.473-1.097-1.332-.548-2.246-1.619-.94-1.07-.94-2.794 0-2.534 2.063-3.996 2.063-1.489 5.563-1.489 2.194 0 3.813.705 1.62.731 2.429 1.907.836 1.201.836 2.664l-.053.679h-3.134v-.314q0-1.28-1.018-2.141-.993-.836-3.239-.836-2.194 0-3.056.784-.888.783-.888 1.828 0 .835.627 1.384.627.548 1.541.862.914.34 2.56.731 2.272.6 3.682 1.175 1.437.549 2.429 1.698 1.019 1.15 1.019 3.056 0 2.977-2.142 4.44-2.142 1.488-5.694 1.488Zm18.152 0q-3.656 0-5.641-2.455-1.985-2.455-1.985-7.6 0-5.04 1.959-7.548 1.958-2.507 5.354-2.507 2.063 0 3.473.627 1.437.627 2.377 2.01h.235v-9.401h3.212v26.43h-2.402l-.418-2.585h-.21q-.966 1.488-2.507 2.272-1.567.757-3.447.757Zm.783-2.664q2.612 0 3.787-1.828 1.202-1.828 1.202-5.406v-.157q0-3.656-1.202-5.51-1.227-1.881-3.787-1.881-1.828 0-2.925.705-1.123.731-1.645 2.325-.496 1.619-.496 4.361v.157q0 2.69.496 4.257.522 1.593 1.62 2.272 1.096.705 2.95.705Zm13.111 2.22v-26.43h3.213v16.636l8.148-9.428h3.996l-6.633 7.574L260 152.993h-3.735l-5.275-9.35-3.5 3.317v6.033h-3.213Z" fill="#2F190E"/>
    <defs>
        <linearGradient gradientTransform="rotate(25)" id="a" x1="0%" y1="0%" x2="100%" y2="0%">
            <stop offset="0%" stop-color="#A92580"/>
            <stop offset="100%" stop-color="#F7BC00"/>
        </linearGradient>
    </defs>
    <path d="M16 32c8.837 0 16-7.163 16-16S24.837 0 16 0 0 7.163 0 16s7.163 16 16 16zM14.817 6.421h2v8.886h8.887v2H14.817V6.421zm-5.959.437h2v14.283h14.283v2H8.858V6.858z" fill="url(#a)" transform="translate(40 119.171) scale(1.92678)"/>
    <path d="M120.775 164.46v-.922h-6.118v8.464h.959v-3.67h4.593v-.932h-4.593v-2.94Zm11.486-1.023c-2.566 0-4.291 1.927-4.291 4.337 0 2.402 1.725 4.328 4.291 4.328 2.575 0 4.3-1.926 4.3-4.328 0-2.41-1.725-4.337-4.3-4.337Zm0 7.734c-2.054 0-3.333-1.497-3.333-3.397 0-1.908 1.279-3.405 3.333-3.405 2.064 0 3.342 1.497 3.342 3.405 0 1.9-1.278 3.397-3.342 3.397Zm13.185-2.42h2.94l2.045 3.251h1.133l-2.22-3.415c.941-.219 2.046-.767 2.046-2.401 0-1.607-1.114-2.648-2.858-2.648h-4.045v8.464h.959Zm0-4.3h2.977c1.196 0 2.008.657 2.008 1.735 0 1.315-1.15 1.662-2.063 1.662h-2.922Zm23.092-.913v8.464h5.578v-.922h-4.62v-7.542Zm17 0h-1.195l-3.598 8.464h1.069l1.031-2.456h4.191l1.041 2.456h1.06Zm-2.318 5.131 1.725-4.136 1.726 4.136Zm14.335.082h2.94l2.045 3.251h1.142l-2.228-3.415c.95-.219 2.045-.767 2.045-2.401 0-1.607-1.105-2.648-2.849-2.648h-4.054v8.464h.959Zm0-4.3h2.986c1.196 0 2 .657 2 1.735 0 1.315-1.151 1.662-2.055 1.662h-2.931Zm17.787-.913h-1.206l-3.588 8.464h1.06l1.03-2.456h4.201l1.032 2.456h1.059Zm-2.329 5.131 1.726-4.136 1.726 4.136Zm18.737-5.131-2.922 7.377-2.931-7.377h-1.05l3.433 8.464h1.096l3.424-8.464Zm14.746.922v-.922h-6.227v8.464h6.227v-.922h-5.269v-2.849h4.703v-.931h-4.703v-2.84Zm7.934-.922v8.464H260v-.922h-4.611v-7.542Z" fill="#2F190E"/>
</svg>
