<svg width="486" height="260" fill="none" xmlns="http://www.w3.org/2000/svg">
    <path d="M251.309 163.21V96.691h-12.525v66.519h12.525Zm9.741-37.202c11.318-.557 19.173-1.392 23.564-2.505 1.361 0 2.474.526 3.34 1.577.928.99 1.392 2.103 1.392 3.34 0 1.237-.402 2.319-1.206 3.247-.743.928-2.474 1.577-5.196 1.948-6.37.99-13.668 1.67-21.894 2.041v32.471c0 1.361-.464 2.536-1.392 3.525-.928.99-2.103 1.485-3.525 1.485h-22.266c-1.36 0-2.536-.495-3.525-1.485-.928-.989-1.392-2.164-1.392-3.525v-32.471c-8.597-.433-16.637-1.237-24.121-2.412-2.783-.309-4.175-2.165-4.175-5.566.186-1.114.742-2.072 1.67-2.876.928-.866 2.01-1.299 3.247-1.299 3.093 1.051 10.886 1.886 23.379 2.505V91.96c0-1.299.464-2.443 1.392-3.433.989-.99 2.165-1.484 3.525-1.484h22.266c1.422 0 2.597.495 3.525 1.484.928.99 1.392 2.134 1.392 3.433v34.048Z" fill="#A7A7A7"/>
    <rect x="3" y="31" width="199" height="199" rx="30" fill="#fff" stroke="#A7A7A7" stroke-width="6"/>
    <path fill-rule="evenodd" clip-rule="evenodd" d="M359.26 159.838h14.643V101.76H359.26v58.078Zm71.492-47.193a24.081 24.081 0 0 0-6.981-6.703c-4.42-2.788-10.451-4.179-18.087-4.179h-19.291v58.075h22.566c8.154 0 14.698-2.668 19.636-8.009 4.939-5.339 7.405-12.424 7.405-21.249 0-7.02-1.752-12.998-5.252-17.935h.004Zm-23.431 34.045h-6.286v-31.782h6.374c4.479 0 7.92 1.404 10.334 4.202 2.414 2.798 3.621 6.768 3.621 11.908 0 10.448-4.681 15.672-14.043 15.672ZM85.793 53 38.34 65.44l-13.077 47.764 16.356 16.808L25 146.543l12.307 47.972 47.246 13.214 16.623-16.534L117.531 208l47.451-12.44 13.074-47.767-16.352-16.802 16.62-16.53-12.307-47.977-47.253-13.213-16.616 16.53L85.793 53Zm-29.12 21.627 24.996-6.556L92.6 79.303 76.66 95.158l-19.987-20.53Zm54.873 4.826 11.106-11.045 24.889 6.96-20.312 20.201-15.683-16.116ZM40.24 109.282l6.886-25.157 19.979 20.531-15.938 15.855-10.927-11.232v.003Zm96.38-4.058 20.312-20.207 6.478 25.271-11.103 11.049-15.687-16.113Zm-50.566-.415 15.941-15.855 15.68 16.116-15.938 15.855-15.683-16.116Zm-25.49 25.353 15.939-15.855 15.69 16.116-15.945 15.855-15.683-16.116Zm50.571.415 15.937-15.855 15.684 16.116-15.941 15.855-15.68-16.116Zm-71.228 20.135 11.11-11.052 15.68 16.119-20.305 20.198-6.485-25.265Zm45.736 5.218 15.941-15.855 15.683 16.116-15.938 15.855-15.686-16.116Zm50.566.417 15.941-15.854 10.931 11.228-6.883 25.157-19.989-20.531Zm-80.426 29.288 20.309-20.208 15.69 16.117-11.11 11.052-24.89-6.965v.004Zm54.941-3.938 15.937-15.855 19.983 20.534-24.993 6.553-10.927-11.232Z" fill="#111"/>
    <rect x="284" y="31" width="199" height="199" rx="30" fill="#fff" stroke="#A7A7A7" stroke-width="6"/>
    <path fill-rule="evenodd" clip-rule="evenodd" d="M464.911 85.649a2.6 2.6 0 0 1 .089.662v34.773a2.525 2.525 0 0 1-1.279 2.199l-29.303 16.804v33.305c0 .907-.484 1.743-1.273 2.2l-61.168 35.07c-.14.08-.293.13-.446.184-.057.019-.111.054-.171.07a2.576 2.576 0 0 1-1.305 0c-.07-.019-.134-.057-.201-.083-.14-.05-.286-.095-.42-.171l-61.155-35.07a2.535 2.535 0 0 1-1.279-2.2V69.073c0-.228.032-.45.089-.665.019-.073.064-.14.089-.212.048-.133.092-.27.162-.393.048-.083.118-.15.175-.225.074-.102.14-.206.226-.295.074-.073.169-.127.252-.19.092-.076.175-.159.28-.219h.003l30.579-17.535a2.56 2.56 0 0 1 2.546 0l30.579 17.535h.006c.102.064.188.143.28.216.083.063.175.12.249.19.089.092.152.196.229.298.054.076.127.142.172.225.073.126.114.26.165.393.025.073.07.14.089.215.059.216.089.439.089.662v65.157l25.482-14.613v-33.31c0-.221.032-.446.089-.658.022-.076.064-.143.089-.216.051-.133.095-.27.165-.393.048-.082.118-.149.172-.225.077-.101.14-.206.229-.295.074-.072.166-.126.249-.19.095-.076.178-.158.28-.218h.003l30.582-17.536a2.557 2.557 0 0 1 2.546 0l30.579 17.536c.108.063.191.142.286.215.08.064.172.12.245.19.09.092.153.197.23.298.057.076.127.143.171.225.074.124.115.26.166.393.028.073.07.14.089.216Zm-5.009 33.968V90.7l-10.701 6.136-14.783 8.478v28.916l25.488-14.613h-.004Zm-30.579 52.308V142.99l-14.542 8.271-41.525 23.605v29.207l56.067-32.148ZM312.098 73.463v98.462l56.06 32.145v-29.201l-29.287-16.509-.009-.006-.013-.006c-.099-.057-.182-.14-.274-.209-.079-.064-.172-.115-.242-.184l-.006-.01c-.083-.079-.14-.177-.21-.266-.064-.086-.14-.158-.191-.247l-.003-.01c-.057-.095-.092-.209-.134-.317-.041-.095-.095-.183-.121-.285v-.003c-.032-.12-.038-.247-.051-.371-.012-.095-.038-.19-.038-.285V88.076l-14.78-8.48-10.701-6.13v-.003Zm28.033-18.996-25.478 14.606 25.472 14.608L365.6 69.07l-25.475-14.604h.006Zm13.25 91.159 14.781-8.474v-63.69L357.46 79.6l-14.783 8.477v63.689l10.704-6.139Zm78.491-73.922-25.475 14.607 25.475 14.607 25.472-14.61-25.472-14.604Zm-2.549 33.61-14.783-8.478-10.702-6.136v28.917l14.781 8.474 10.704 6.139v-28.916Zm-58.619 65.162 37.366-21.246 18.679-10.617-25.456-14.598-29.31 16.807-26.713 15.317 25.434 14.337Z" fill="#000" stroke="#000" stroke-width="4"/>
</svg>
